<?xml version="1.0" standalone="no"?>
<!DOCTYPE svg PUBLIC "-//W3C//DTD SVG 20010904//EN"
 "http://www.w3.org/TR/2001/REC-SVG-20010904/DTD/svg10.dtd">
<svg version="1.0" xmlns="http://www.w3.org/2000/svg"
 width="3264.000000pt" height="3264.000000pt" viewBox="0 0 3264.000000 3264.000000"
 preserveAspectRatio="xMidYMid meet">

<g transform="translate(0.000000,3264.000000) scale(0.100000,-0.100000)"
fill="#000000" stroke="none">
<path d="M17466 17805 c-329 -48 -576 -170 -783 -389 -229 -242 -334 -537
-320 -901 8 -208 39 -338 115 -490 53 -106 94 -166 169 -246 177 -188 426
-314 733 -372 170 -31 530 -31 713 2 115 20 223 48 315 81 l32 12 0 252 c0
139 -3 255 -6 259 -4 3 -18 0 -33 -7 -53 -28 -209 -78 -301 -98 -66 -14 -151
-21 -277 -25 -164 -5 -191 -4 -278 17 -148 34 -262 95 -361 194 -143 143 -190
281 -182 531 4 115 10 154 32 220 46 141 119 242 227 316 127 86 256 121 449
121 257 0 452 -51 723 -190 4 -2 7 134 7 302 l0 306 -27 11 c-79 30 -212 62
-328 80 -174 26 -484 33 -619 14z"/>
<path d="M24190 17809 c-336 -34 -611 -155 -758 -332 -101 -122 -159 -311
-148 -482 7 -127 22 -188 66 -280 142 -293 444 -433 885 -409 435 24 528 1
556 -137 15 -73 1 -123 -50 -175 -77 -81 -214 -116 -446 -116 -270 0 -567 65
-837 183 -36 16 -71 29 -77 29 -8 0 -11 -84 -11 -275 l0 -274 93 -30 c132 -42
310 -80 477 -102 167 -21 490 -26 635 -8 222 27 454 113 574 212 131 110 218
260 251 437 16 83 13 278 -5 356 -47 201 -185 334 -412 396 -67 18 -108 21
-293 22 -118 1 -298 -1 -400 -4 -201 -5 -258 4 -331 52 -94 63 -104 226 -18
305 37 34 129 72 216 90 125 25 463 23 623 -5 151 -26 293 -69 419 -128 52
-24 96 -44 97 -44 2 0 4 141 4 313 l0 314 -102 21 c-334 69 -739 98 -1008 71z"/>
<path d="M26513 17809 c-207 -20 -415 -79 -552 -156 -98 -56 -204 -150 -256
-229 -135 -203 -145 -538 -23 -753 62 -109 195 -228 313 -280 180 -81 342
-101 649 -81 229 14 322 6 392 -35 51 -30 69 -70 69 -152 0 -85 -35 -135 -125
-181 -96 -48 -189 -64 -370 -64 -272 0 -511 50 -803 168 -59 24 -112 44 -117
44 -6 0 -10 -105 -10 -269 0 -210 3 -271 13 -279 19 -16 233 -76 357 -101 246
-49 614 -67 830 -41 459 56 729 251 821 595 29 107 32 329 6 424 -54 198 -189
324 -412 382 -107 27 -312 35 -576 20 -222 -12 -329 -5 -404 28 -119 53 -160
196 -85 300 59 82 197 124 440 137 299 15 575 -34 835 -148 50 -22 96 -42 103
-45 10 -4 12 59 10 308 l-3 313 -75 18 c-297 69 -757 103 -1027 77z"/>
<path d="M30965 17808 c-327 -33 -609 -155 -751 -326 -183 -222 -204 -591 -46
-840 69 -110 199 -215 332 -269 159 -64 279 -74 730 -63 150 4 182 2 226 -13
82 -28 116 -77 117 -166 0 -95 -51 -162 -156 -204 -93 -37 -175 -49 -337 -50
-271 0 -555 62 -844 184 -37 16 -72 29 -77 29 -6 0 -8 -115 -7 -276 l3 -276
91 -28 c262 -81 528 -120 819 -120 231 0 335 11 494 51 132 33 290 106 366
169 124 104 218 259 250 415 23 108 23 299 0 385 -53 204 -187 331 -412 392
-67 18 -108 21 -288 22 -115 1 -295 -1 -400 -4 -206 -5 -263 4 -336 52 -94 63
-104 226 -18 305 37 34 129 72 216 90 125 25 463 23 624 -5 144 -24 301 -73
426 -132 47 -22 87 -40 89 -40 2 0 4 141 4 314 l0 313 -132 26 c-352 69 -711
93 -983 65z"/>
<path d="M284 17598 c12 -336 26 -991 32 -1580 l7 -598 278 0 279 0 0 518 c0
284 7 787 15 1117 8 330 15 626 15 658 l0 57 -316 0 -316 0 6 -172z"/>
<path d="M1210 17741 c0 -27 77 -133 361 -496 7 -10 -102 -547 -300 -1480 -38
-181 -66 -333 -62 -338 4 -4 144 -6 311 -5 l304 3 82 665 c46 366 85 689 89
718 4 28 9 52 13 52 4 0 259 -324 567 -720 l560 -720 213 0 212 0 0 318 c0
260 41 1462 65 1920 l6 112 -316 0 -316 0 6 -87 c14 -218 55 -1256 50 -1262
-4 -3 -12 1 -18 10 -7 9 -237 313 -511 677 l-499 662 -409 0 -408 0 0 -29z"/>
<path d="M3990 17683 c0 -49 7 -306 15 -573 8 -267 15 -756 15 -1088 l0 -602
283 2 282 3 5 437 c3 240 8 440 12 444 4 4 200 -4 435 -18 236 -14 431 -22
436 -18 4 3 6 116 5 251 l-3 244 -437 3 -438 2 0 265 0 265 23 0 c12 0 277
-14 588 -31 311 -18 573 -29 583 -26 15 6 16 31 14 264 l-3 258 -907 3 -908 2
0 -87z"/>
<path d="M6113 17608 c8 -204 26 -1128 33 -1730 l6 -458 279 0 279 0 0 518 c0
284 7 787 15 1117 8 330 15 626 15 658 l0 57 -317 0 -316 0 6 -162z"/>
<path d="M7040 17741 c0 -23 40 -81 176 -258 97 -125 180 -233 184 -238 5 -6
-76 -415 -180 -910 -103 -495 -186 -903 -183 -907 2 -5 141 -8 308 -8 l305 0
5 23 c2 12 41 319 85 682 101 819 88 740 110 720 10 -9 265 -333 566 -721
l549 -704 212 0 213 0 0 334 c0 280 41 1484 65 1909 l6 107 -316 0 -316 0 6
-107 c16 -288 54 -1238 49 -1242 -7 -7 44 -74 -533 693 l-494 656 -409 0 -408
0 0 -29z"/>
<path d="M9820 17663 c0 -60 5 -261 11 -448 6 -187 14 -666 17 -1065 l7 -725
280 0 280 0 7 840 c4 462 11 986 16 1165 5 179 7 328 5 333 -2 4 -143 7 -314
7 l-309 0 0 -107z"/>
<path d="M10707 17763 c-11 -11 -8 -561 3 -568 6 -3 193 19 416 50 223 32 408
54 411 51 3 -3 1 -423 -5 -933 -6 -510 -9 -930 -6 -935 3 -4 133 -8 290 -8
l284 0 0 248 c0 136 -5 557 -10 937 -5 379 -7 691 -5 693 2 3 175 -16 383 -42
208 -25 388 -46 400 -46 l22 0 0 280 0 280 -1088 0 c-599 0 -1092 -3 -1095 -7z"/>
<path d="M12970 17762 c0 -4 221 -361 491 -792 l490 -785 -5 -85 c-3 -47 -8
-219 -12 -383 l-6 -297 309 2 308 3 -2 175 c-1 96 -5 270 -8 385 l-6 210 487
775 c267 426 489 781 491 788 4 9 -66 12 -328 12 l-334 0 -265 -486 c-306
-562 -299 -549 -310 -538 -6 7 -350 630 -531 962 l-34 62 -367 0 c-203 0 -368
-4 -368 -8z"/>
<path d="M18750 17758 c0 -7 7 -256 16 -553 10 -352 14 -756 12 -1160 l-3
-620 835 0 835 0 3 275 c1 151 0 280 -2 285 -3 8 -171 -9 -522 -52 -286 -34
-534 -63 -551 -63 l-33 0 0 73 c1 39 9 464 19 942 10 479 17 873 14 878 -2 4
-143 7 -314 7 -241 0 -309 -3 -309 -12z"/>
<path d="M21180 17740 c0 -16 29 -108 65 -203 36 -95 65 -180 65 -188 0 -8
-80 -196 -178 -419 -98 -223 -234 -531 -302 -685 -68 -154 -176 -399 -240
-545 -65 -146 -116 -268 -113 -272 2 -5 138 -8 302 -8 l299 0 70 173 c39 95
76 185 81 200 l11 27 569 0 569 0 28 -72 c15 -40 49 -129 75 -198 l47 -125
336 -3 c185 -1 336 0 336 4 0 5 -335 837 -843 2097 l-99 247 -539 0 -539 0 0
-30z m839 -979 c100 -261 179 -476 177 -479 -3 -2 -178 -6 -391 -10 l-386 -5
21 54 c56 142 373 925 377 933 9 13 9 12 202 -493z"/>
<path d="M28005 17653 c19 -388 35 -1160 35 -1657 l0 -576 888 2 887 3 3 281
c2 220 0 283 -10 286 -7 2 -278 -24 -603 -58 -324 -34 -593 -59 -597 -55 -4 3
-5 118 -1 254 l6 247 61 0 c34 0 236 -9 450 -20 214 -11 393 -17 398 -12 5 5
7 118 6 253 l-3 244 -455 0 -455 0 4 225 c2 124 5 227 7 229 4 4 1051 -64
1167 -76 l57 -6 0 277 0 276 -925 0 -926 0 6 -117z"/>
</g>
</svg>
